<svg id="Capa_1" enable-background="new 0 0 512 512" height="512" viewBox="0 0 512 512" width="512" xmlns="http://www.w3.org/2000/svg"><g><g><path d="m368.025 502h-224.05c-22.091 0-40-17.909-40-40v-412c0-22.091 17.909-40 40-40h224.05c22.091 0 40 17.909 40 40v412c0 22.091-17.909 40-40 40z" fill="#99ebfb"/><g><path d="m163.683 458.452h184.635c8.925 0 16.16-7.235 16.16-16.16v-372.584c0-8.925-7.235-16.16-16.16-16.16h-184.635c-8.925 0-16.16 7.235-16.16 16.16v372.585c0 8.924 7.235 16.159 16.16 16.159z" fill="#fff"/></g><path d="m307.41 68.548h-102.82c-8.284 0-15-6.716-15-15 0-8.284 6.716-15 15-15h102.82c8.284 0 15 6.716 15 15 0 8.284-6.716 15-15 15z" fill="#99ebfb"/></g><g><circle cx="256" cy="188.448" fill="#fff" r="67.552"/><circle cx="256" cy="188.448" fill="#fff3d6" r="33.776"/></g><path d="m10 230.883h492v160h-492z" fill="#ccf5fd"/><g fill="#4ab7ff"><path d="m283.094 360.229c1.172.446 2.374.658 3.558.658 4.029 0 7.827-2.454 9.347-6.444l5.029-13.203h34.462l4.972 13.174c1.949 5.167 7.716 7.774 12.887 5.825 5.167-1.95 7.774-7.72 5.824-12.887l-29.767-78.876c-.034-.092-.07-.184-.108-.275-1.83-4.446-6.116-7.317-10.924-7.317-.004 0-.009 0-.012 0-4.812.005-9.1 2.886-10.922 7.339-.031.076-.062.152-.09.229l-30.04 78.873c-1.967 5.16.623 10.938 5.784 12.904zm35.243-64.437 9.604 25.448h-19.296z"/><path d="m203.967 360.883c5.522 0 10-4.477 10-10v-47.772l35.764 51.788c2.938 4.246 7.837 6.055 12.488 4.601 4.743-1.481 7.808-5.922 7.808-11.312v-77.304c0-5.523-4.478-10-10-10s-10 4.477-10 10v49.249l-37.831-54.782c-2.486-3.6-7.024-5.166-11.205-3.864-4.178 1.302-7.023 5.17-7.023 9.547v79.851c-.001 5.521 4.476 9.998 9.999 9.998z"/><path d="m428.435 360.518h33.4c5.522 0 10-4.477 10-10s-4.478-10-10-10h-23.4v-19.635h20.938c5.522 0 10-4.477 10-10s-4.478-10-10-10h-20.938v-19.635h23.4c5.522 0 10-4.477 10-10s-4.478-10-10-10h-33.4c-5.522 0-10 4.477-10 10v79.27c0 5.523 4.477 10 10 10z"/><path d="m43.277 356.797c1.874 1.86 4.406 2.903 7.045 2.903h.038c.664-.002 16.344-.063 22.61-.172 23.486-.411 40.532-20.868 40.532-48.645 0-29.199-16.617-48.817-41.351-48.817h-21.986c-2.655 0-5.202 1.056-7.078 2.936-1.875 1.879-2.927 4.428-2.922 7.083v.06.002 76.292c0 .663.068 1.31.191 1.937.165 2.418 1.191 4.704 2.921 6.421zm28.875-74.731c3.565 0 21.351 1.389 21.351 28.817 0 19.538-10.488 28.466-20.882 28.647-2.839.05-7.804.089-12.333.118-.029-9.176-.089-48.051-.105-57.583h11.969z"/><path d="m357.133 280.883h12.001v70c0 5.523 4.478 10 10 10s10-4.477 10-10v-70h12.18c5.522 0 10-4.477 10-10s-4.478-10-10-10h-44.181c-5.522 0-10 4.477-10 10s4.477 10 10 10z"/><path d="m153.05 360.883c17.77 0 32.227-14.457 32.227-32.227v-35.546c0-17.77-14.457-32.227-32.227-32.227-17.771 0-32.228 14.457-32.228 32.227v35.546c0 17.77 14.457 32.227 32.228 32.227zm-12.228-67.773c0-6.742 5.485-12.227 12.228-12.227s12.227 5.485 12.227 12.227v35.546c0 6.742-5.484 12.227-12.227 12.227s-12.228-5.485-12.228-12.227z"/><path d="m502 220.883h-83.975v-170.883c0-27.57-22.43-50-50-50h-224.05c-27.57 0-50 22.43-50 50v170.883h-83.975c-5.522 0-10 4.477-10 10v160c0 5.523 4.478 10 10 10h83.975v61.117c0 27.57 22.43 50 50 50h224.051c27.57 0 50-22.43 50-50v-61.117h83.974c5.522 0 10-4.477 10-10v-160c0-5.523-4.478-10-10-10zm-388.025-170.883c0-16.542 13.458-30 30-30h224.051c16.542 0 30 13.458 30 30v170.883h-71.559c4.657-10.08 7.086-21.062 7.086-32.436 0-42.763-34.79-77.552-77.552-77.552s-77.552 34.79-77.552 77.552c0 11.391 2.428 22.364 7.083 32.436h-71.557zm94.487 170.883c-6.556-9.564-10.014-20.702-10.014-32.436 0-31.734 25.817-57.552 57.552-57.552s57.552 25.818 57.552 57.552c0 11.712-3.455 22.867-10.008 32.436zm189.563 241.117c0 16.542-13.458 30-30 30h-224.05c-16.542 0-30-13.458-30-30v-61.117h284.051v61.117zm93.975-81.117h-472v-140h472z"/></g></g></svg>