<svg id="Capa_1" enable-background="new 0 0 512 512" height="512" viewBox="0 0 512 512" width="512" xmlns="http://www.w3.org/2000/svg"><g><g><path d="m271.419 231.638c-2.35-14.682-9.707-28.717-22.078-39.354-24.413-20.992-61.266-20.865-85.546.281-13.079 11.39-20.479 26.607-22.202 42.329-1.988 18.139-10.689 34.621-24.361 46.706-14.803 13.085-23.643 32.757-21.924 54.434 2.538 32.015 28.616 57.805 60.655 60.023 10.066.697 19.688-.883 28.405-4.275 17.092-6.652 35.971-6.649 53.064.002 8.698 3.384 18.299 4.964 28.342 4.277 31.788-2.173 57.803-27.578 60.653-59.312 2.16-24.048-8.683-45.709-26.294-58.753-15.209-11.266-25.722-27.669-28.714-46.358z" fill="#64b9fc"/><path d="m326.432 336.75c-2.855 31.729-28.875 57.135-60.652 59.315-.735.048-1.458.084-2.18.108 13.347-10.829 22.418-26.79 24.032-44.787 2.156-24.044-8.685-45.715-26.297-58.749-15.214-11.275-25.718-27.67-28.718-46.365-2.349-14.684-9.709-28.718-22.081-39.355-12.841-11.046-29.139-16.238-45.233-15.612 24.261-19.888 60.122-19.575 84.034.976 12.371 10.637 19.732 24.67 22.081 39.355 2.999 18.695 13.504 35.09 28.718 46.353 17.61 13.046 28.452 34.717 26.296 58.761z" fill="#31a7fb"/><g><circle cx="139.789" cy="96.741" fill="#64b9fc" r="46.787"/><g><path d="m186.576 96.744c0 25.839-20.948 46.787-46.787 46.787-6.493 0-12.685-1.325-18.31-3.722 16.732-7.131 28.465-23.731 28.465-43.065s-11.733-35.933-28.465-43.065c5.626-2.397 11.817-3.722 18.31-3.722 25.839 0 46.787 20.948 46.787 46.787z" fill="#31a7fb"/></g><circle cx="275.985" cy="96.741" fill="#64b9fc" r="46.787"/><path d="m322.77 96.744c0 25.839-20.948 46.787-46.787 46.787-6.493 0-12.685-1.325-18.31-3.722 16.732-7.131 28.465-23.731 28.465-43.065s-11.733-35.933-28.465-43.065c5.626-2.397 11.817-3.722 18.31-3.722 25.838 0 46.787 20.948 46.787 46.787z" fill="#31a7fb"/></g><g><circle cx="46.787" cy="191.259" fill="#64b9fc" r="46.787"/><g><path d="m93.581 191.257c0 25.839-20.948 46.787-46.799 46.787-6.505 0-12.685-1.325-18.31-3.722 16.744-7.119 28.477-23.719 28.477-43.065s-11.733-35.946-28.477-43.065c5.626-2.397 11.805-3.722 18.31-3.722 25.85 0 46.799 20.949 46.799 46.787z" fill="#31a7fb"/></g><circle cx="368.986" cy="191.259" fill="#64b9fc" r="46.787"/><path d="m415.778 191.257c0 25.839-20.948 46.787-46.787 46.787-6.505 0-12.685-1.325-18.31-3.722 16.732-7.131 28.465-23.731 28.465-43.065s-11.733-35.934-28.465-43.065c5.625-2.397 11.805-3.722 18.31-3.722 25.838 0 46.787 20.949 46.787 46.787z" fill="#31a7fb"/></g></g><g><path d="m495.535 369.416c21.95-21.95 21.95-57.537 0-79.487-21.95-21.95-57.537-21.95-79.487 0l-10.535 10.535c-4.023 4.023-10.546 4.023-14.569 0l-10.535-10.535c-21.95-21.95-57.537-21.95-79.487 0-21.95 21.95-21.95 57.537 0 79.487l89.323 89.323c4.409 4.409 11.558 4.409 15.968 0z" fill="#fb6a3b"/><path d="m495.538 369.412-89.323 89.323c-4.415 4.415-11.562 4.415-15.965 0l-10.772-10.772 86.805-86.816c21.95-21.95 21.95-57.539 0-79.477v-.011c-3.195-3.195-6.684-5.928-10.388-8.186 14.351.023 28.69 5.51 39.643 16.462 21.949 21.949 21.949 57.527 0 79.477z" fill="#fb5532"/></g></g></svg>