<svg height="511pt" viewBox="1 0 511.99941 511" width="511pt" xmlns="http://www.w3.org/2000/svg"><path d="m28.289062 201.003906c1.8125.738282 3.730469 1.105469 5.648438 1.105469 1.984375 0 3.96875-.394531 5.832031-1.179687l44.867188-18.9375c7.628906-3.222657 11.207031-12.019532 7.984375-19.652344-3.222656-7.632813-12.015625-11.207032-19.652344-7.984375l-10.976562 4.628906c34.054687-77.515625 111.101562-128.484375 196.828124-128.484375 98.015626 0 183.609376 66.277344 208.148438 161.171875 1.746094 6.761719 7.835938 11.25 14.511719 11.25 1.242187 0 2.507812-.15625 3.765625-.480469 8.019531-2.074218 12.84375-10.257812 10.769531-18.277344-27.964844-108.140624-125.503906-183.664062-237.195313-183.664062-98.238281 0-186.464843 58.742188-224.933593 147.914062l-5.066407-12.003906c-3.21875-7.628906-12.015624-11.207031-19.648437-7.984375-7.632813 3.21875-11.210937 12.019531-7.988281 19.648438l18.933594 44.867187c1.546874 3.664063 4.484374 6.566406 8.171874 8.0625zm0 0"/><path d="m510.816406 361.875-18.933594-44.863281c-1.546874-3.664063-4.488281-6.566407-8.171874-8.066407-3.683594-1.496093-7.816407-1.46875-11.480469.078126l-44.867188 18.9375c-7.632812 3.21875-11.207031 12.019531-7.984375 19.652343 3.21875 7.632813 12.019532 11.207031 19.648438 7.984375l12.5625-5.300781c-33.199219 79.59375-111.324219 132.195313-198.410156 132.195313-98.015626 0-183.609376-66.277344-208.148438-161.175782-2.074219-8.019531-10.261719-12.835937-18.277344-10.765625-8.019531 2.074219-12.839844 10.257813-10.765625 18.277344 27.960938 108.136719 125.5 183.660156 237.191407 183.660156 98.792968 0 187.460937-59.40625 225.578124-149.421875l4.417969 10.472656c2.417969 5.726563 7.976563 9.171876 13.828125 9.171876 1.941406 0 3.921875-.382813 5.824219-1.1875 7.632813-3.21875 11.207031-12.015626 7.988281-19.648438zm0 0"/><path d="m366.933594 290.382812c25.339844-34.191406 34.351562-77.570312 23.511718-113.207031-1.34375-4.417969-4.644531-7.972656-8.953124-9.632812-21.855469-8.425781-48.921876-9.722657-76.207032-3.640625-20.367187 4.535156-38.96875 12.757812-52.785156 23.140625-24.226562-21.652344-53.457031-36.15625-78.703125-36.15625-.1875 0-.382813 0-.566406.003906-5.335938.042969-10.242188 2.921875-12.890625 7.554687-2.648438 4.632813-2.636719 10.320313.03125 14.941407 10.199218 17.667969 5.914062 33.203125-1.917969 57.082031-5.390625 16.421875-10.964844 33.40625-8.855469 52.28125 3.089844 27.675781 22.457032 53.226562 49.339844 65.089844 10.082031 4.449218 20.429688 6.652344 30.582031 6.652344 2.167969 0 4.328125-.113282 6.472657-.3125l12.753906 42.960937c1.933594 6.515625 7.902344 10.734375 14.371094 10.734375 1.414062 0 2.851562-.203125 4.273437-.625 7.941406-2.355469 12.472656-10.707031 10.113281-18.648438l-12.597656-42.441406c19.871094-1.304687 38.570312-6.542968 55.699219-15.648437 18.164062-9.660157 33.75-23.160157 46.328125-40.128907zm-3.398438-97.179687c4.773438 25.089844-2.96875 55.390625-20.703125 79.316406-8.007812 10.804688-22.6875 26.417969-45.480469 35.84375 1.183594-2.886719 2.167969-5.859375 2.957032-8.917969 3.734375-14.484374 2.863281-30.226562-2.59375-46.785156-5.007813-15.195312-13.605469-30.117187-24.410156-43.652344 22.066406-15.042968 60.417968-23.847656 90.230468-15.804687zm-152.484375 127.195313c-17.023437-7.519532-29.742187-23.984376-31.640625-40.976563-1.382812-12.394531 2.953125-25.609375 7.546875-39.601563 5.425781-16.546874 11.355469-34.613281 8.828125-54.117187 29.9375 12.058594 63.050782 44.828125 73.4375 76.34375 7.253906 22.015625 2.664063 39.75-13.621094 52.765625l-12.703124-42.785156c-2.355469-7.941406-10.707032-12.46875-18.648438-10.113282-7.941406 2.359376-12.46875 10.707032-10.109375 18.648438l13.007813 43.824219c-6.554688-.390625-12.1875-2.265625-16.097657-3.988281zm0 0"/></svg>