<svg id="icons" enable-background="new 0 0 64 64" height="512" viewBox="0 0 64 64" width="512" xmlns="http://www.w3.org/2000/svg"><g><g><path d="m13.51 28c0 6.15 3.7 11.43 9 13.75v5.25h-7.99c-1.539 0-2.939.57-4 1.54l-.01-.01v-24.22c.95.091 1.95.171 3 .24z" fill="#656d78"/></g><g><path d="m46.51 24.31v24.22c-1.06-.96-2.46-1.53-4-1.53h-8v-5.25c5.3-2.31 9-7.6 9-13.75v-3.45c1.05-.08 2.05-.16 3-.24z" fill="#656d78"/></g><g><g><path d="m40.512 48.002h-5c-.553 0-1-.447-1-1s.447-1 1-1h5c.553 0 1 .447 1 1s-.448 1-1 1z" fill="#edab37"/></g><g><path d="m21.51 48.002h-5c-.553 0-1-.447-1-1s.447-1 1-1h5c.553 0 1 .447 1 1s-.447 1-1 1z" fill="#edab37"/></g></g><g><path d="m32.51 49-2.99 3h-2.01l-3-3 4-2z" fill="#656d78"/></g><g><path d="m46.51 19.7c6.141.55 10 1.38 10 2.3v.01c0 .92-3.89 1.75-10 2.3-.95.08-1.95.16-3 .24-4.34.29-9.49.46-15.01.46s-10.66-.17-14.99-.46c-1.05-.069-2.05-.149-3-.24-6.13-.55-10.02-1.369-10.02-2.3v-.01c0-.92 3.87-1.75 10.02-2.3v1.3h36z" fill="#844747"/></g><g><path d="m46.51 19.7v1.3h-36v-1.3-.7c0-9.94 8.061-18 18-18 9.95 0 18 8.06 18 18z" fill="#965353"/></g><g><path d="m43.51 24.55v3.45c0 6.15-3.7 11.44-9 13.75-1.83.8-3.859 1.25-6 1.25-2.13 0-4.16-.45-6-1.25-5.3-2.32-9-7.6-9-13.75v-3.45c4.33.29 9.471.46 14.99.46s10.67-.17 15.01-.46z" fill="#eac6bb"/></g><g><path d="m34.51 41.75v5.25l-2 2-4-2-4 2-2-2v-5.25c1.84.8 3.87 1.25 6 1.25 2.14 0 4.17-.45 6-1.25z" fill="#ffd2a6"/></g><g><path d="m24.51 49 3 3-1.99 11h-17l-.01-10c0-1.78.78-3.38 2.01-4.46 1.061-.97 2.461-1.54 4-1.54h7.99z" fill="#f7c292"/></g><g><path d="m54.511 57h4v6h-4z" fill="#965353"/></g><g><path d="m56.511 35 6 13h-3-6-3z" fill="#a0d468"/></g><g><path d="m29.52 52 1.99 11h-5.99l1.99-11z" fill="#545c66"/></g><g><circle cx="39.01" cy="56.5" fill="#edab37" r="2.5"/></g><g><path d="m59.511 48 4 9h-5-4-5l4-9z" fill="#8cc152"/></g><g><path d="m48.51 57v6h-17l-1.99-11 2.99-3 2-2h8c1.54 0 2.94.57 4 1.53 1.23 1.09 2 2.689 2 4.47zm-7-.5c0-1.38-1.12-2.5-2.5-2.5s-2.5 1.12-2.5 2.5 1.12 2.5 2.5 2.5 2.5-1.12 2.5-2.5z" fill="#f7c292"/></g></g></svg>