<svg id="Capa_1" enable-background="new 0 0 512 512" height="512" viewBox="0 0 512 512" width="512" xmlns="http://www.w3.org/2000/svg"><g><g><g><path clip-rule="evenodd" d="m250.014 12.441c-15.309 11.398-59.165 36.486-121.902 8.704-6.151-2.721-8.249-2.125-12.417 2.324l-49.215 51.598c-3.94 4.023-4.678 6.264-.936 11.991 10.631 16.3 35.437 61.998 19.76 113.595-28.86 95.141-28.35 151.158-12.275 186.142 33.991 74.049 137.466 53.949 178.714 111.215 2.665 3.656 5.84 3.656 8.477 0 41.276-57.266 144.751-37.166 178.742-111.215 16.046-34.983 16.585-91.001-12.275-186.142-15.677-51.597 9.129-97.295 19.76-113.595 3.742-5.728 3.005-7.968-.936-11.991l-49.214-51.598c-4.168-4.449-6.266-5.045-12.417-2.324-62.737 27.782-106.594 2.693-121.902-8.704-4.027-2.975-7.939-2.975-11.964 0z" fill="#b7d8fb" fill-rule="evenodd"/></g><g><path clip-rule="evenodd" d="m243.862 488.682c2.835 2.863 5.471 5.953 7.881 9.327 2.665 3.656 5.84 3.656 8.477 0 41.276-57.266 144.751-37.166 178.742-111.215 16.046-34.983 16.585-91.001-12.275-186.142-15.677-51.597 9.129-97.295 19.76-113.595 3.742-5.728 3.005-7.968-.936-11.991l-49.214-51.598c-4.168-4.449-6.266-5.045-12.417-2.324-3.459 1.531-6.832 2.891-10.178 4.111l47.542 49.811c3.912 4.023 4.649 6.264.936 11.991-10.631 16.3-35.437 61.998-19.76 113.595 28.86 95.141 28.321 151.158 12.275 186.142-31.979 69.683-125.559 55.99-170.833 101.888z" fill="#89c8fe" fill-rule="evenodd"/></g><g><path clip-rule="evenodd" d="m249.05 58.057c-35.068 16.641-73.34 18.652-110.619 7.993-5.953-1.702-8.448-1.503-12.871 3.346l-10.546 11.056c-4.026 3.713-4.309 7.995-2.069 12.673 1.503 3.175 2.75 6.378 3.94 9.468 13.607 35.154 16.613 73 5.585 109.344-12.077 39.774-32.829 117.961-14.146 158.672 4.026 8.788 9.724 15.392 17.548 21.006 13.636 9.81 32.375 15.847 48.25 20.922 26.96 8.645 53.212 16.81 75.495 31.099 4.337 3.373 8.504 3.373 12.814 0 22.283-14.288 48.534-22.453 75.495-31.099 15.875-5.075 34.614-11.112 48.25-20.922 7.824-5.614 13.522-12.218 17.576-21.006 18.682-40.711-2.069-118.898-14.175-158.672-11.027-36.344-8.022-74.189 5.585-109.344 1.219-3.09 2.467-6.293 3.969-9.468 2.211-4.678 1.928-8.96-2.098-12.673l-10.546-11.056c-4.394-4.849-6.889-5.048-12.871-3.346-37.279 10.659-75.55 8.648-110.619-7.993-4.394-2.27-9.525-2.27-13.947 0z" fill="#21a1ff" fill-rule="evenodd"/></g><g><path clip-rule="evenodd" d="m243.89 440.148c1.956 1.105 3.855 2.267 5.727 3.486 4.337 3.373 8.504 3.373 12.814 0 22.283-14.288 48.534-22.453 75.495-31.099 15.875-5.075 34.614-11.112 48.25-20.922 7.824-5.614 13.522-12.218 17.576-21.006 18.682-40.711-2.069-118.898-14.175-158.672-11.027-36.344-8.022-74.189 5.585-109.344 1.219-3.09 2.467-6.293 3.969-9.468 2.211-4.678 1.928-8.96-2.098-12.673l-10.546-11.056c-4.394-4.849-6.889-5.048-12.871-3.346-3.912 1.135-7.825 2.098-11.765 2.949.113.113.255.254.369.396l10.545 11.056c4.026 3.713 4.31 7.995 2.098 12.673-1.53 3.175-2.778 6.378-3.969 9.468-13.607 35.154-16.612 73-5.585 109.344 12.077 39.774 32.829 117.961 14.175 158.672-4.054 8.788-9.752 15.392-17.576 21.006-13.636 9.81-32.375 15.847-48.251 20.922-24.692 7.911-48.76 15.423-69.767 27.614z" fill="#1991ff" fill-rule="evenodd"/></g><g><path d="m250.58 290.237-20.894-35.834c-.255-.396-.567-.566-1.021-.566l-41.531-.199c-4.763-.027-7.825-5.245-5.443-9.384l20.695-36.201c.142-.369.057-.709-.085-1.049l-20.61-36.061c-1.73-3.006-.681-6.832 2.324-8.562 1.134-.652 2.381-.908 3.601-.822l41.049-.199c.624 0 .709-.027 1.021-.566l20.922-35.86c1.729-3.007 5.556-4.026 8.562-2.298 1.02.566 1.786 1.39 2.324 2.325l20.894 35.833c.311.539.368.566 1.021.566l41.531.199c3.459.027 6.237 2.835 6.237 6.294 0 1.076-.283 2.154-.822 3.09l-20.609 36.088c-.17.455-.227.738 0 1.162l20.609 36.061c1.73 3.006.681 6.862-2.324 8.562-1.134.652-2.381.908-3.572.822l-41.049.199c-.482 0-.795.17-1.021.566l-20.922 35.891c-1.729 2.977-5.585 3.998-8.59 2.268-.993-.568-1.786-1.39-2.297-2.325z" fill="#fee274"/></g><g><path d="m302.942 161.446 21.999.113c3.459.027 6.237 2.835 6.237 6.294 0 1.076-.283 2.154-.822 3.09l-20.609 36.088c-.17.455-.227.738 0 1.162l20.609 36.061c1.73 3.006.681 6.862-2.324 8.562-1.134.652-2.381.908-3.572.822l-21.432.113c.425-.141.878-.34 1.304-.566 3.034-1.758 4.082-5.612 2.353-8.646l-20.78-36.346c-.227-.424-.198-.707 0-1.162l20.78-36.371c.539-.936.794-2.014.822-3.119-.001-2.864-1.929-5.302-4.565-6.095z" fill="#fed360"/></g></g><g><path d="m65.544 388.381c-1.672-3.771.028-8.192 3.828-9.865 3.799-1.672 8.221.057 9.865 3.827 17.123 38.641 55.054 50.462 92.164 62.199 32.403 10.261 64.325 20.383 84.594 46.606 20.269-26.224 52.191-36.346 84.594-46.606 26.195-8.278 52.729-16.698 71.809-33.905 15.536-14.035 26.62-34.389 29.398-66.31 2.863-33.255-3.175-78.584-22.283-141.52-17.066-56.246 11.113-105.601 21.688-121.421l-51.964-54.458c-69.541 31.808-117.933 2.182-133.242-9.667-15.309 11.849-63.701 41.475-133.242 9.667l-51.964 54.459c10.574 15.82 38.753 65.175 21.659 121.421-10.319 34.019-16.84 62.936-20.185 87.628-3.317 24.379-3.516 44.479-1.276 61.205.539 4.082-2.325 7.853-6.407 8.421-4.11.537-7.881-2.325-8.419-6.436-2.41-18.002-2.211-39.434 1.276-65.175 3.458-25.4 10.149-55.11 20.723-89.981 17.973-59.138-20.666-110.166-22.878-113.029-2.325-2.976-2.268-7.114.397-9.894l59.845-62.708c2.183-2.41 5.784-3.203 8.845-1.701 78.272 38.611 126.296-8.901 126.438-9.044 2.892-2.777 7.456-2.807 10.376 0 .142.143 48.137 47.628 126.381 9.071 2.863-1.445 6.464-.906 8.788 1.531l59.647 62.511c2.806 2.607 3.232 7.002.822 10.093-.113.17-41.446 52.36-22.991 113.169 19.731 65.007 25.94 112.207 22.906 147.134-3.147 36.258-16.102 59.733-34.303 76.174-21.517 19.391-49.582 28.294-77.337 37.082-33.311 10.546-66.082 20.922-82.61 49.384-.623 1.105-1.559 2.07-2.749 2.75-3.572 2.068-8.136.85-10.206-2.721-16.528-28.491-49.328-38.867-82.638-49.413-42.354-13.411-81.873-26.507-101.349-70.478zm143.873-8.446c-4.139 0-7.484-3.376-7.484-7.515 0-4.138 3.345-7.513 7.484-7.513h93.213c4.139 0 7.512 3.375 7.512 7.513 0 4.139-3.374 7.515-7.512 7.515zm29.143-33.992c-4.167 0-7.512-3.373-7.512-7.513 0-4.139 3.345-7.484 7.512-7.484h34.955c4.139 0 7.484 3.346 7.484 7.484 0 4.14-3.345 7.513-7.484 7.513zm10.972-42.637-24.182-41.447c-.227-.396-.51-.537-.992-.537l-48.052-.256c-5.67 0-9.299-6.237-6.464-11.17l23.757-41.59c.312-.51.34-.68.085-1.275l-23.842-41.701c-2.041-3.601-.793-8.192 2.778-10.233 1.361-.766 2.836-1.078 4.281-.965l47.456-.227c.652 0 .681 0 .992-.566l24.211-41.505c2.069-3.57 6.633-4.789 10.234-2.721 1.191.709 2.098 1.672 2.75 2.777l24.154 41.448c.34.566.34.566.992.566l48.052.227c4.139 0 7.456 3.373 7.428 7.484 0 1.306-.312 2.581-.964 3.714l-23.842 41.701c-.17.426-.227.738 0 1.135l23.842 41.73c2.069 3.571.822 8.163-2.778 10.204-1.332.766-2.835 1.079-4.252.966l-47.485.256c-.454 0-.737.141-.992.537l-24.182 41.504c-2.069 3.572-6.662 4.791-10.234 2.721-1.192-.679-2.128-1.672-2.751-2.777zm-11.227-48.96 17.718 30.419 17.719-30.419c2.919-4.962 8.136-7.966 13.891-7.995l35.21-.17-17.435-30.503c-1.389-2.41-2.183-5.188-2.183-7.966 0-2.637.822-5.814 2.154-8.138l17.463-30.56-35.21-.17c-3.175-.029-5.925-.795-8.278-2.211-2.353-1.418-4.196-3.373-5.613-5.784l-17.719-30.39-17.718 30.39c-1.418 2.411-3.232 4.366-5.613 5.784-2.352 1.416-5.075 2.182-8.278 2.211l-35.21.17 17.435 30.476c2.863 5.046 2.92 11.085.057 16.131l-17.492 30.56 35.21.17c5.756.029 11 3.033 13.892 7.995zm159.408-41.248c1.162 3.969-1.077 8.137-5.046 9.327-3.969 1.191-8.136-1.077-9.327-5.046-2.835-9.44-4.961-18.398-6.322-27.499s-1.928-18.342-1.616-28.435c.283-10.376 1.531-20.695 3.629-30.872 2.155-10.405 5.216-20.666 9.1-30.675 1.616-4.195 3.374-8.306 5.245-12.36l-14.515-15.223c-16.017 4.819-32.488 7.54-49.101 7.739-17.265.227-34.614-2.24-51.737-7.882-7.569-2.494-14.912-5.584-22.027-9.185-7.116 3.601-14.458 6.69-22.027 9.185-17.123 5.642-34.473 8.108-51.737 7.882-16.613-.199-33.084-2.92-49.101-7.739l-14.515 15.223c1.871 4.055 3.629 8.165 5.245 12.36 7.23 18.684 11.595 38.131 12.587 57.721.964 18.852-1.163 37.846-6.833 56.471-5.953 19.617-14.033 48.677-18.341 77.904-4.196 28.405-4.791 56.698 3.855 75.493 1.729 3.771 3.799 7.087 6.266 10.007 2.494 2.95 5.414 5.585 8.844 8.081 6.237 4.48 13.807 8.165 21.716 11.339 35.294 14.203 70.788 19.703 104.07 41.958 22.736-15.365 48.109-23.446 73.822-31.611 18.994-6.064 42.325-12.643 56.557-25.457 13.154-11.878 17.548-32.971 17.35-56.584-.227-24.807-5.585-52.306-11.396-75.41-.992-4.025 1.445-8.078 5.471-9.101 3.997-.992 8.08 1.446 9.072 5.472 6.01 23.928 11.566 52.559 11.793 78.926.227 27.526-5.415 52.587-22.282 67.839-16.33 14.741-40.823 21.771-62.057 28.548-26.053 8.308-51.766 16.471-73.623 32.374-2.58 2.041-6.293 2.24-9.072.199-32.318-23.389-69.768-28.974-105.289-43.26-8.845-3.573-17.463-7.798-24.862-13.127-4.394-3.147-8.222-6.633-11.538-10.575-3.345-3.996-6.151-8.392-8.448-13.407-10.036-21.887-9.61-53.042-5.075-83.858 4.422-29.966 12.757-59.902 18.88-80.086 5.131-16.896 7.06-34.188 6.181-51.37-.908-18.002-4.933-35.891-11.595-53.097-2.041-5.245-4.309-10.462-6.775-15.508-1.587-2.807-1.247-6.407 1.077-8.845l21.092-22.113c1.928-2.182 5.018-3.117 7.938-2.182 16.102 5.272 32.63 8.278 49.186 8.476 15.592.199 31.326-2.042 46.89-7.173 7.88-2.578 15.819-6.038 23.104-9.95 2.155-1.162 4.791-1.246 7.088-.027 7.313 3.939 15.252 7.399 23.161 9.977 15.564 5.131 31.298 7.372 46.89 7.173 16.556-.197 33.084-3.204 49.158-8.476 2.807-.852 5.726-.17 7.768 1.984l21.233 22.254c2.155 2.268 2.722 5.669 1.333 8.476-2.551 5.188-4.904 10.546-6.974 15.934-3.601 9.271-6.407 18.711-8.392 28.265-1.956 9.383-3.09 18.823-3.345 28.291-.284 9.071.255 17.492 1.502 25.854 1.244 8.335 3.2 16.613 5.865 25.401z"/></g></g></svg>