<svg id="Capa_1" enable-background="new 0 0 512 512" height="512" viewBox="0 0 512 512" width="512" xmlns="http://www.w3.org/2000/svg"><g><g><g><g><g><g><g><circle cx="256" cy="256" fill="#ffce00" r="256"/></g></g></g></g></g></g><path d="m512 256c0-9.967-.57-19.801-1.678-29.47l-135.378-135.378-24.986 55.055-78.958-78.958-30 61.249 95.044 95.044-42.913 23.686-156.075-156.076-21.223 21.204 149.961 149.961-208.539 115.102 123.274 123.274c23.857 7.35 49.202 11.307 75.471 11.307 141.385 0 256-114.615 256-256z" fill="#ffa300"/><g><path d="m72.255 189.583h367.49v172.836h-367.49z" fill="#1dd882"/></g><g><path d="m256 189.583h183.745v172.836h-183.745z" fill="#2cc47f"/></g><g><path d="m454.745 377.419h-397.49v-202.836h397.49zm-367.49-30h337.49v-142.836h-337.49z" fill="#06b26b"/></g><g><path d="m454.745 174.583h-198.745v30h168.745v142.836h-168.745v30h198.745z" fill="#0a9154"/></g><g><path d="m312.206 257.156c0-16.412-13.305-29.716-29.717-29.716-11.558 0-21.575 6.599-26.489 16.234-4.914-9.636-14.931-16.234-26.489-16.234-16.412 0-29.717 13.305-29.717 29.716 0 32.922 56.206 67.408 56.206 67.408s56.206-30.818 56.206-67.408z" fill="#06b26b"/></g><g><path d="m256 324.563s56.206-30.817 56.206-67.408c0-16.412-13.305-29.716-29.717-29.716-11.558 0-21.575 6.599-26.489 16.234z" fill="#0a9154"/></g><g><g><ellipse cx="145.665" cy="276.001" fill="#06b26b" rx="23.294" ry="23.294" transform="matrix(.16 -.987 .987 .16 -150.105 375.575)"/></g><g><ellipse cx="366.335" cy="276.001" fill="#0a9154" rx="23.294" ry="23.294" transform="matrix(.16 -.987 .987 .16 35.217 593.395)"/></g></g><g><path d="m241 67.249h30v61.249h-30z" fill="#fff"/></g><g><path d="m241 67.249h15.028v61.249h-15.028z" fill="#fff"/><path d="m256.028 67.249h14.972v61.249h-14.972z" fill="#e9edf5"/></g><g><g><path d="m333.297 108.414h61.236v30h-61.236z" fill="#e9edf5" transform="matrix(.707 -.707 .707 .707 19.398 293.628)"/></g><g><path d="m133.085 92.795h30v61.236h-30z" fill="#fff" transform="matrix(.707 -.707 .707 .707 -43.901 140.774)"/></g></g></g></svg>