<svg id="love_money" height="512" viewBox="0 0 444 279.46" width="512" xmlns="http://www.w3.org/2000/svg" data-name="love money"><rect fill="#008f39" height="164" rx="15.91" width="341" x="51.96" y="62"/><path d="m76.05 80h293.18v129h-293.18z" fill="#a2ccb0"/><g fill="#008f39"><circle cx="79.46" cy="84.5" r="19.5"/><circle cx="78.46" cy="203.5" r="19.5"/><circle cx="367.46" cy="85.5" r="19.5"/><circle cx="368.46" cy="202.5" r="19.5"/><circle cx="220.96" cy="146" r="39"/></g><path d="m472.27 144.27c-2.33-12.08-12.65-21.19-25-21.19h-.27s-16.29-2.08-25.27 15.62c-9-17.73-25.32-15.62-25.32-15.62h-.2c-12.38 0-22.69 9.11-25 21.19-7.1 33.53 50.54 74.22 50.54 74.22s57.62-40.69 50.52-74.22z" fill="#ce1d58" transform="translate(-29.04 -123)"/><path d="m472.44 144.42c-2.33-12.06-12.62-21.15-25-21.15h-.2s-16.24-2.11-25.24 15.59v79.63s57.53-40.61 50.44-74.07z" fill="#b21b55" transform="translate(-29.04 -123)"/><path d="m362.73 152.38-8.73 5.18a.9.9 0 0 0 -.37.4l-4.63 9.09a1 1 0 0 1 -1.69.06l-5.17-8.78a1 1 0 0 0 -.4-.37l-9.1-4.6a1 1 0 0 1 -.05-1.69l8.78-5.18a1 1 0 0 0 .37-.4l4.6-9.1a1 1 0 0 1 1.69-.05l5.18 8.78a.9.9 0 0 0 .4.37l9.09 4.6a1 1 0 0 1 .03 1.69z" fill="#edc964" transform="translate(-29.04 -123)"/><circle cx="146.46" cy="147.5" fill="#008f39" r="19.5"/><circle cx="294.46" cy="147.5" fill="#008f39" r="19.5"/><path d="m69.3 260.49-11.54 6.8a1.36 1.36 0 0 0 -.49.52l-6 11.95a1.26 1.26 0 0 1 -2.22.08l-6.8-11.54a1.23 1.23 0 0 0 -.52-.49l-11.95-6a1.27 1.27 0 0 1 -.07-2.22l11.53-6.8a1.23 1.23 0 0 0 .49-.52l6-11.95a1.26 1.26 0 0 1 2.22-.07l6.8 11.53a1.36 1.36 0 0 0 .52.49l11.95 6a1.26 1.26 0 0 1 .08 2.22z" fill="#edc964" transform="translate(-29.04 -123)"/><path d="m230.3 382.49-11.54 6.8a1.36 1.36 0 0 0 -.49.52l-6 11.95a1.26 1.26 0 0 1 -2.22.08l-6.8-11.54a1.23 1.23 0 0 0 -.52-.49l-11.95-6a1.27 1.27 0 0 1 -.07-2.22l11.53-6.8a1.23 1.23 0 0 0 .49-.52l6-12a1.26 1.26 0 0 1 2.22-.07l6.8 11.53a1.36 1.36 0 0 0 .52.49l11.95 6a1.26 1.26 0 0 1 .08 2.27z" fill="#edc964" transform="translate(-29.04 -123)"/></svg>