<svg id="Capa_1" enable-background="new 0 0 512 512" height="512" viewBox="0 0 512 512" width="512" xmlns="http://www.w3.org/2000/svg"><g><g><path d="m475.803 251.561-219.807 219.807-219.807-219.807c-24.119-24.119-36.189-55.743-36.189-87.367s12.07-63.248 36.189-87.368c48.259-48.259 126.497-48.259 174.735 0l45.072 45.051 45.072-45.051c24.119-24.119 55.743-36.189 87.368-36.189s63.249 12.07 87.368 36.189c5.284 5.284 9.973 10.918 14.106 16.82.02 0 .02.021.02.021 33.556 48.176 28.847 114.92-14.127 157.894z" fill="#e27f8e"/><g fill="#dd636d"><path d="m489.908 93.646c-47.806-18.65-104.228-8.657-142.864 29.959l-44.66 44.66-46.388-46.388 45.072-45.051c24.119-24.119 55.743-36.189 87.368-36.189s63.249 12.07 87.368 36.189c5.283 5.284 9.972 10.918 14.104 16.82z"/><path d="m256.001 471.364-219.807-219.807c-24.119-24.119-36.168-55.743-36.168-87.367s12.049-63.249 36.168-87.368c38.657-38.657 96.538-46.347 142.844-23.05-18.136 6.539-35.14 17.087-49.678 31.624-26.237 26.237-39.746 60.987-39.746 96.024 0 26.114 7.505 52.392 22.885 75.38z"/></g></g><path d="m289.382 197.828c-21.576-7.627-45.408-16.815-58.568-27.137-3.244-2.545-4.624-9.025-3.355-15.758.667-3.539 3.767-15.365 15.667-18.95 23.936-7.213 39.489 4.948 41.185 6.359 11.664 9.71 28.999 8.124 38.709-3.545 9.712-11.668 8.124-29-3.545-38.71-9.268-7.714-22.168-14.677-37.477-18.427v-7.097c0-15.18-12.306-27.487-27.487-27.487-15.18 0-27.487 12.306-27.487 27.487v8.867c-27.512 8.391-48.036 31.86-53.588 61.322-5.145 27.3 3.842 53.813 23.453 69.194 19.364 15.187 47.092 26.139 74.173 35.712 21.222 7.501 21.848 23.746 20.332 32.762-2.534 15.072-15.214 31.36-37.066 31.505-22.877.161-29.394-.88-46.661-12.176-12.707-8.31-29.741-4.75-38.05 7.955-8.31 12.704-4.749 29.739 7.954 38.049 18.796 12.296 32.893 17.684 49.453 19.851v8.017c0 15.18 12.306 27.487 27.487 27.487 15.18 0 27.487-12.306 27.487-27.487v-10.838c12.838-3.926 24.57-10.609 34.684-19.903 15.221-13.984 25.493-32.93 28.925-53.347 7.007-41.683-15.587-79.341-56.225-93.705z" fill="#b3e59f"/><g fill="#95d6a4"><path d="m284.311 142.342c8.69 7.234 20.525 8.194 30.012 3.391-1.806-.917-3.54-2.04-5.162-3.391-1.644-1.366-16.297-12.826-38.981-6.974 8.204 2.282 13.211 6.209 14.131 6.974z"/><path d="m251.873 375.621v-8.017c-16.56-2.166-30.656-7.555-49.453-19.851-12.704-8.31-16.265-25.345-7.954-38.049 2.735-4.182 6.418-7.365 10.577-9.469-12.34-6.271-27.678-2.381-35.427 9.469-8.31 12.704-4.749 29.739 7.954 38.049 18.796 12.296 32.893 17.685 49.453 19.851v8.017c0 15.18 12.306 27.487 27.487 27.487 4.473 0 8.692-1.075 12.425-2.971-8.935-4.538-15.062-13.808-15.062-24.516z"/><path d="m196.889 213.947c19.364 15.187 47.092 26.139 74.173 35.712 21.222 7.501 21.848 23.746 20.332 32.762-2.269 13.495-12.679 27.957-30.518 30.94 4.967.537 10.738.618 18.302.565 21.852-.145 34.532-16.433 37.066-31.505 1.516-9.015.889-25.26-20.332-32.762-27.08-9.573-54.809-20.525-74.173-35.712-19.611-15.381-28.598-41.895-23.453-69.194 5.552-29.463 26.076-52.932 53.588-61.322v-8.867c0-10.707 6.127-19.978 15.062-24.516-3.733-1.896-7.952-2.971-12.425-2.971-15.18 0-27.487 12.306-27.487 27.487v8.867c-27.512 8.391-48.036 31.86-53.588 61.322-5.145 27.299 3.842 53.813 23.453 69.194z"/></g></g></svg>