<svg id="Capa_1" enable-background="new 0 0 512 512" height="512" viewBox="0 0 512 512" width="512" xmlns="http://www.w3.org/2000/svg"><g><path d="m512 182.75c0 80.52-68.43 175.15-256 292.59-187.57-117.44-256-212.07-256-292.59 0-80.68 65.4-146.09 146.09-146.09 43.83 0 83.13 19.34 109.91 49.92 26.78-30.58 66.08-49.92 109.91-49.92 80.69 0 146.09 65.41 146.09 146.09z" fill="#ff4844"/><path d="m512 182.75c0 80.52-68.43 175.15-256 292.59v-388.76c26.78-30.58 66.08-49.92 109.91-49.92 80.69 0 146.09 65.41 146.09 146.09z" fill="#d20062"/><path d="m384 257.43c0 70.7-57.31 128.01-128 128.01s-128-57.31-128-128.01c0-70.69 57.31-128 128-128s128 57.31 128 128z" fill="#febf00"/><path d="m384 257.43c0 70.7-57.31 128.01-128 128.01v-256.01c70.69 0 128 57.31 128 128z" fill="#ff9000"/><path d="m307.57 284.69c0 21.66-15.86 39.68-36.57 43.09v18.6h-30v-18.56c-20.57-3.28-36.34-21.14-36.34-42.63h30c0 7.27 5.91 13.18 13.18 13.18h16.04c7.55 0 13.69-6.14 13.69-13.68 0-7.55-6.14-13.69-13.69-13.69h-15.76c-24.09 0-43.69-19.6-43.69-43.69 0-21.66 15.86-39.68 36.57-43.09v-18.6h30v18.66c20.54 3.56 36.22 21.5 36.22 43.05h-30c0-7.56-6.15-13.7-13.7-13.7h-15.4c-7.55 0-13.69 6.14-13.69 13.68 0 7.55 6.14 13.69 13.69 13.69h15.76c24.09 0 43.69 19.6 43.69 43.69z" fill="#ffe22f"/><g fill="#febf00"><path d="m307.57 284.69c0 21.66-15.86 39.68-36.57 43.09v18.6h-15v-48.01h7.88c7.55 0 13.69-6.14 13.69-13.68 0-7.55-6.14-13.69-13.69-13.69h-7.88v-30h7.88c24.09 0 43.69 19.6 43.69 43.69z"/><path d="m263.52 213.63h-7.52v-48.01h15v18.66c20.54 3.56 36.22 21.5 36.22 43.05h-30c0-7.56-6.15-13.7-13.7-13.7z"/></g></g></svg>