<?xml version="1.0"?>
<svg xmlns="http://www.w3.org/2000/svg" xmlns:xlink="http://www.w3.org/1999/xlink" xmlns:svgjs="http://svgjs.com/svgjs" version="1.1" width="512" height="512" x="0" y="0" viewBox="0 0 64 64" style="enable-background:new 0 0 512 512" xml:space="preserve" class=""><g><g xmlns="http://www.w3.org/2000/svg" id="Virus_Protection" data-name="Virus Protection"><path d="m55.76047 14.32228a.65888.65888 0 0 0 -.55917-.617 47.34951 47.34951 0 0 1 -11.27538-2.85336 59.48727 59.48727 0 0 1 -11.55424-6.72827.62043.62043 0 0 0 -.74336 0 59.48765 59.48765 0 0 1 -11.55422 6.72824 47.34964 47.34964 0 0 1 -11.2754 2.85336.65887.65887 0 0 0 -.55917.617 50.7396 50.7396 0 0 0 4.38928 23.92789 49.97118 49.97118 0 0 0 19.033 21.64943.61967.61967 0 0 0 .67632 0 49.97106 49.97106 0 0 0 19.033-21.64943 50.7396 50.7396 0 0 0 4.38934-23.92786z" fill="#a8e9a2" data-original="#98acf8" style="" class=""/><path d="m55.76044 14.32227a.6588.6588 0 0 0 -.55915-.617c-.78228-.13092-1.59179-.26044-2.4295-.40619a57.76981 57.76981 0 0 1 -4.40057 25.39752 52.6473 52.6473 0 0 1 -16.38522 21.29925.62964.62964 0 0 0 .35211-.09625 49.97135 49.97135 0 0 0 19.03311-21.64942 50.73937 50.73937 0 0 0 4.38922-23.92791z" fill="#61bb73" data-original="#778cbc" style="" class=""/><path d="m17.71051 42.73678a49.64391 49.64391 0 0 1 -7.32422-21.48438 1.00029 1.00029 0 0 1 1.99024-.20215 47.62158 47.62158 0 0 0 7.02637 20.62012 1.00021 1.00021 0 0 1 -1.69239 1.06641z" fill="#ffffff" data-original="#ffffff" style="" class=""/><path d="m21.62018 44.83932a1 1 0 1 1 -1-1 1 1 0 0 1 1 1z" fill="#ffffff" data-original="#ffffff" style="" class=""/><path d="m48 24a1.003 1.003 0 0 1 -1 1h-1.14a4.16415 4.16415 0 0 1 -.43 1.02l.29.29.52.52a.99588.99588 0 0 1 0 1.41.97833.97833 0 0 1 -1.41 0l-.81-.81a3.33837 3.33837 0 0 1 -.72.33c-.1.04-.2.06995-.3.1v1.14a1 1 0 0 1 -2 0v-1.14a4.16554 4.16554 0 0 1 -1.02-.43l-.81.81a.97833.97833 0 0 1 -1.41 0 .99588.99588 0 0 1 0-1.41l.81-.81a4.16415 4.16415 0 0 1 -.43-1.02h-1.14a1 1 0 0 1 0-2h1.14a4.16554 4.16554 0 0 1 .43-1.02l-.81-.81a.997.997 0 0 1 1.41-1.41l.81.81a4.16554 4.16554 0 0 1 1.02-.43v-1.14a1 1 0 0 1 2 0v1.14c.1.03.2.06.3.1a3.33837 3.33837 0 0 1 .72.33l.81-.81a.997.997 0 0 1 1.41 1.41l-.81.81a4.16554 4.16554 0 0 1 .43 1.02h1.14a1.003 1.003 0 0 1 1 1z" fill="#ff583e" data-original="#ff583e" style="" class=""/><g fill="#f2261c"><circle cx="40.609" cy="22.422" r=".75" fill="#f2261c" data-original="#f2261c" style=""/><circle cx="41.573" cy="25.578" r=".75" fill="#f2261c" data-original="#f2261c" style=""/><circle cx="43.918" cy="23.453" r=".75" fill="#f2261c" data-original="#f2261c" style=""/><path d="m48 24a1.003 1.003 0 0 1 -1 1h-1.14a4.16415 4.16415 0 0 1 -.43 1.02l.29.29.52.52a.99588.99588 0 0 1 0 1.41.97833.97833 0 0 1 -1.41 0l-.81-.81a3.33837 3.33837 0 0 1 -.72.33 4.46147 4.46147 0 0 0 0-7.52 3.33837 3.33837 0 0 1 .72.33l.81-.81a.997.997 0 0 1 1.41 1.41l-.81.81a4.16554 4.16554 0 0 1 .43 1.02h1.14a1.003 1.003 0 0 1 1 1z" fill="#f2261c" data-original="#f2261c" style=""/></g><path d="m29 21.31a1.003 1.003 0 0 1 -1 1h-1.14a3.86254 3.86254 0 0 1 -.43 1.02l.27.27.54.54a.99582.99582 0 0 1 0 1.41.97833.97833 0 0 1 -1.41 0l-.5-.5-.31-.3a4.44169 4.44169 0 0 1 -.8.36c-.06995.02-.15.04-.22.06v1.14a1 1 0 1 1 -2 0v-1.14a4.13982 4.13982 0 0 1 -1.02-.42l-.81.8a.97833.97833 0 0 1 -1.41 0 .99582.99582 0 0 1 0-1.41l.81-.81005a3.86254 3.86254 0 0 1 -.43-1.02h-1.14a1 1 0 0 1 0-2h1.14a4.16554 4.16554 0 0 1 .43-1.02l-.81-.81a.997.997 0 0 1 1.41-1.41l.81.81a4.1659 4.1659 0 0 1 1.02-.42995v-1.14a1 1 0 0 1 2 0v1.14a1.33685 1.33685 0 0 1 .26.09 3.68333 3.68333 0 0 1 .76.34l.81-.81a.997.997 0 0 1 1.41 1.41l-.81.81a4.16554 4.16554 0 0 1 .43 1.02h1.14a1.003 1.003 0 0 1 1 1z" fill="#ff583e" data-original="#ff583e" style="" class=""/><circle cx="23.5" cy="19.411" fill="#f2261c" r=".75" data-original="#f2261c" style=""/><circle cx="21.125" cy="21.702" fill="#f2261c" r=".75" data-original="#f2261c" style=""/><circle cx="24.083" cy="22.827" fill="#f2261c" r=".75" data-original="#f2261c" style=""/><path d="m29 21.31a1.003 1.003 0 0 1 -1 1h-1.14a3.86254 3.86254 0 0 1 -.43 1.02l.27.27.54.54a.99582.99582 0 0 1 0 1.41.97833.97833 0 0 1 -1.41 0l-.5-.5-.31-.3a4.44169 4.44169 0 0 1 -.8.36 4.47243 4.47243 0 0 0 .04-7.57 3.68333 3.68333 0 0 1 .76.34l.81-.81a.997.997 0 0 1 1.41 1.41l-.81.81a4.16554 4.16554 0 0 1 .43 1.02h1.14a1.003 1.003 0 0 1 1 1z" fill="#f2261c" data-original="#f2261c" style=""/><path d="m42 41a1.003 1.003 0 0 1 -1 1h-1.6a5.50629 5.50629 0 0 1 -.87 2.12l.64.64.49.48a1.0079 1.0079 0 0 1 0 1.42 1.014 1.014 0 0 1 -1.42 0l-.57-.57-.55-.56a5.38163 5.38163 0 0 1 -1.95.83 1.03935 1.03935 0 0 1 -.17.04v1.6a1 1 0 0 1 -2 0v-1.6a5.505 5.505 0 0 1 -2.12-.87l-1.12 1.13a1.014 1.014 0 0 1 -1.42 0 1.0079 1.0079 0 0 1 0-1.42l1.13-1.12a5.50629 5.50629 0 0 1 -.87-2.12h-1.6a1 1 0 0 1 0-2h1.6a5.5059 5.5059 0 0 1 .87-2.12l-1.13-1.12a1.0041 1.0041 0 1 1 1.42-1.42l1.12 1.13a5.5059 5.5059 0 0 1 2.12-.87v-1.6a1 1 0 0 1 2 0v1.6a1.04581 1.04581 0 0 1 .17.04 5.38152 5.38152 0 0 1 1.95.83l.55-.56.57-.57a1.0041 1.0041 0 0 1 1.42 1.42l-.49.48-.64.64a5.5059 5.5059 0 0 1 .87 2.12h1.6a1.003 1.003 0 0 1 1 1z" fill="#ff583e" data-original="#ff583e" style="" class=""/><circle cx="33.585" cy="39.125" fill="#f2261c" r="1" data-original="#f2261c" style=""/><circle cx="32.188" cy="42.652" fill="#f2261c" r="1" data-original="#f2261c" style=""/><circle cx="35.906" cy="42.207" fill="#f2261c" r="1" data-original="#f2261c" style=""/><path d="m42 41a1.003 1.003 0 0 1 -1 1h-1.6a5.50629 5.50629 0 0 1 -.87 2.12l.64.64.49.48a1.0079 1.0079 0 0 1 0 1.42 1.014 1.014 0 0 1 -1.42 0l-.57-.57-.55-.56a5.38163 5.38163 0 0 1 -1.95.83 5.97872 5.97872 0 0 0 0-10.72 5.38152 5.38152 0 0 1 1.95.83l.55-.56.57-.57a1.0041 1.0041 0 0 1 1.42 1.42l-.49.48-.64.64a5.5059 5.5059 0 0 1 .87 2.12h1.6a1.003 1.003 0 0 1 1 1z" fill="#f2261c" data-original="#f2261c" style=""/></g></g></svg>
