<?xml version="1.0" encoding="iso-8859-1"?>
<!-- Generator: Adobe Illustrator 19.0.0, SVG Export Plug-In . SVG Version: 6.00 Build 0)  -->
<svg version="1.1" id="Capa_1" xmlns="http://www.w3.org/2000/svg" xmlns:xlink="http://www.w3.org/1999/xlink" x="0px" y="0px"
	 viewBox="0 0 512.002 512.002" style="enable-background:new 0 0 512.002 512.002;" xml:space="preserve">
<circle style="fill:#FE3F4E;" cx="256" cy="256.001" r="256"/>
<path style="fill:#EAB883;" d="M394.461,366.829l-0.001-0.001l-0.002-0.002c-0.001-0.001-0.001-0.001-0.001-0.001l0,0
	c-10.486-11.728-7.448-8.329-25.537-28.563c4.454-4.795,9.542-9.002,15.156-12.483l28.399-11.749l-64.142-116.92l-21.077,10.843l0,0
	c-13.326,6.856-27.33,0.001-27.33,0.001c-9.65-5.224-31.775-13.273-60.424,1.135l0,0c-7.893-2.305-24.664-6.677-33.261-2.721
	c-4.76,2.19-18.722,12.027-36.092,3.091l-15.397-9.129L92.496,313.813c14.149,10.689,32.542,17.06,44.816,41.309
	c11.755,19.735,12.79,25.341,20.188,31.184c14.042,11.09,24.236,21.402,25.755,22.42c39.845,27.348,78.042,67.258,78.042,67.258
	l1.899,2.145c8.193,8.786,21.956,9.267,30.741,1.075c8.025-7.483,9.097-19.601,2.985-28.341l1.602,1.719
	c7.918,8.494,21.2,9.643,30.115,2.201c7.749-6.468,9.778-16.999,5.923-25.604c8.281,7.713,21.226,7.833,29.63-0.003
	c8.419-7.851,9.19-20.804,2.032-29.604c8.386,5.781,19.721,4.92,27.158-2.002C402.171,389.377,402.652,375.615,394.461,366.829
	L394.461,366.829z"/>
<path style="fill:#F7CF9C;" d="M394.461,366.829L394.461,366.829L394.461,366.829L394.461,366.829l-0.001-0.001l-0.002-0.002
	c-0.001-0.001-0.001-0.001-0.001-0.001l0,0c-15.608-17.457-1.252-1.4-71.206-79.644C280.499,286.385,257,260.002,257,260.002
	c-3.13-2.484-7.52-2.581-10.751-0.228l-31.982,29.094c-8.891,8.088-22.273,8.721-31.888,1.51
	c-8.778-6.583-9.928-19.316-2.473-27.365c17.569-17.532,33.319-40.709,59.596-53.924c-7.893-2.305-24.664-6.677-33.261-2.721
	c-4.76,2.19-18.722,12.027-36.092,3.092l-15.398-9.129L92.496,313.813c14.149,10.689,32.542,17.06,44.817,41.309
	c11.755,19.735,12.79,25.341,20.189,31.184c14.042,11.09,24.236,21.402,25.755,22.42c39.845,27.348,78.042,67.258,78.042,67.258
	l1.899,2.145c8.193,8.786,21.956,9.267,30.741,1.075c8.025-7.483,9.097-19.601,2.985-28.341l1.602,1.719
	c7.918,8.495,21.2,9.643,30.115,2.202c7.749-6.468,9.778-16.999,5.923-25.604c8.28,7.713,21.226,7.833,29.63-0.003
	c8.419-7.851,9.19-20.804,2.032-29.604c8.386,5.781,19.721,4.92,27.158-2.002C402.17,389.377,402.652,375.615,394.461,366.829z"/>
<path style="fill:#EAB883;" d="M233.188,445.372c-2.611,2.347-4.987,4.483-6.307,5.669c-8.565,7.699-9.266,20.883-1.567,29.448
	c7.383,8.213,19.806,9.19,28.366,2.468c2.028-1.823,4.093-3.68,6.307-5.669c8.565-7.699,9.266-20.883,1.567-29.448
	C254.172,439.628,241.749,438.65,233.188,445.372z"/>
<path style="fill:#DDA878;" d="M241.315,466.989c-6.318-7.028-6.969-17.161-2.271-24.827c-4.919,1.755-6.664,3.937-12.163,8.879
	c-8.565,7.699-9.266,20.883-1.567,29.448c7.383,8.213,19.806,9.19,28.366,2.468c2.028-1.823,4.093-3.68,6.307-5.669
	c1.537-1.382,2.81-2.945,3.837-4.621C256.098,475.424,247.14,473.469,241.315,466.989z"/>
<g>
	<path style="fill:#EAB883;" d="M348.333,197.109l-21.077,10.843l0,0c-13.327,6.856-27.33,0.001-27.33,0.001
		c-9.65-5.224-31.775-13.273-60.424,1.135l0,0c-23.272,11.703-39.423,32.186-59.596,53.924c-7.455,8.049-6.305,20.782,2.473,27.365
		c9.615,7.212,22.997,6.578,31.888-1.51l31.982-29.094c3.231-2.352,7.621-2.256,10.751,0.228
		c0.441,0.191,22.853,26.371,66.251,27.179c7.533,8.425,38.607,43.182,45.668,51.081c4.454-4.795,9.543-9.002,15.156-12.483
		l28.399-11.749L348.333,197.109z"/>
	<path style="fill:#EAB883;" d="M205.307,414.357c-2.611,2.347-4.987,4.483-6.307,5.669c-8.565,7.699-9.266,20.883-1.567,29.448
		c7.383,8.213,19.806,9.19,28.367,2.468c2.028-1.823,4.093-3.68,6.307-5.669c8.565-7.699,9.266-20.883,1.567-29.448
		C226.29,408.613,213.868,407.636,205.307,414.357z"/>
</g>
<path style="fill:#DDA878;" d="M211.163,411.147c-4.919,1.755-6.664,3.936-12.163,8.879c-8.565,7.7-9.266,20.883-1.567,29.448
	c7.383,8.213,19.806,9.19,28.367,2.468c2.028-1.823,4.093-3.68,6.307-5.669c1.537-1.382,2.81-2.944,3.837-4.621
	C217.433,448.255,200.909,427.878,211.163,411.147z"/>
<path style="fill:#EAB883;" d="M177.426,383.342c-2.611,2.347-4.987,4.483-6.307,5.67c-8.565,7.699-9.266,20.883-1.567,29.448
	c7.383,8.213,19.806,9.19,28.366,2.468c2.028-1.823,4.093-3.68,6.307-5.669c8.565-7.699,9.266-20.883,1.567-29.448
	C198.409,377.598,185.987,376.621,177.426,383.342z"/>
<path style="fill:#DDA878;" d="M183.282,380.133c-4.919,1.755-6.664,3.937-12.163,8.879c-8.565,7.699-9.266,20.883-1.567,29.448
	c7.383,8.213,19.806,9.19,28.367,2.468c2.028-1.823,4.093-3.68,6.306-5.669c1.537-1.382,2.81-2.945,3.837-4.621
	C189.552,417.241,173.028,396.864,183.282,380.133z"/>
<path style="fill:#EAB883;" d="M149.545,352.328c-2.611,2.347-4.986,4.483-6.307,5.669c-8.565,7.7-9.266,20.883-1.567,29.448
	c7.383,8.213,19.806,9.19,28.366,2.468c2.028-1.823,4.093-3.68,6.307-5.669c8.565-7.699,9.266-20.883,1.567-29.448
	C170.528,346.584,158.105,345.607,149.545,352.328z"/>
<path style="fill:#DDA878;" d="M155.401,349.119c-4.919,1.755-6.664,3.936-12.163,8.879c-8.565,7.699-9.266,20.883-1.567,29.448
	c7.383,8.213,19.806,9.19,28.366,2.468c6.346-5.704,8.086-6.932,10.144-10.29C161.671,386.226,145.147,365.849,155.401,349.119z"/>
<path style="fill:#EABC8B;" d="M195.596,211.367c-8.337,2.748-17.487,2.187-25.446-1.908l-15.398-9.129L92.496,313.813
	c19.248,13.144,23.921,15.016,31.907,23.232C124.227,334.258,150.113,234.846,195.596,211.367z"/>
<path style="fill:#DDA878;" d="M387.793,324.241l24.682-10.211l-64.142-116.92l-21.077,10.843l0,0
	c-3.948,2.031-7.953,2.853-11.638,3.012C357.268,232.112,386.177,274.724,387.793,324.241z"/>
<path style="fill:#EDEDED;" d="M382.565,164.7l74.652,136.079l-34.536,18.946c-4.088,2.243-9.221,0.747-11.464-3.342l-66.53-121.273
	c-2.243-4.088-0.747-9.221,3.342-11.464L382.565,164.7z"/>
<path style="fill:#DBDBDB;" d="M386.548,271.413l24.67,44.97c2.243,4.088,7.375,5.584,11.464,3.341l34.535-18.946l-24.67-44.97
	l-34.535,18.946C393.923,276.998,388.79,275.502,386.548,271.413z"/>
<path style="fill:#666666;" d="M465.85,109.366l-24.257,14.038c-8.062,4.423-48.315,26.505-56.531,31.012
	c-4.085,2.241-5.581,7.37-3.339,11.456l74.642,136.06c2.241,4.085,7.37,5.581,11.456,3.339l24.589-13.489l18.348-10.497
	C516.749,220.164,500.986,159.554,465.85,109.366z"/>
<path style="fill:#5A5B5B;" d="M509.51,220.299c-2.098,1.167,13.811-7.68-67.662,37.628c-4.086,2.241-9.215,0.746-11.456-3.339
	l25.973,47.344c2.241,4.085,7.37,5.581,11.456,3.339l42.982-24.489C512.694,261.084,512.403,241.03,509.51,220.299z"/>
<circle style="fill:#7F7E7D;" cx="436.22" cy="177.691" r="11.515"/>
<path style="fill:#EDEDED;" d="M125.287,164.7L50.635,300.779l34.535,18.946c4.089,2.243,9.221,0.747,11.464-3.342l66.53-121.273
	c2.243-4.089,0.747-9.221-3.342-11.464L125.287,164.7z"/>
<path style="fill:#DBDBDB;" d="M121.305,271.413l-24.67,44.97c-2.243,4.088-7.376,5.584-11.464,3.341l-34.535-18.946l24.67-44.97
	l34.535,18.946C113.93,276.998,119.062,275.502,121.305,271.413z"/>
<path style="fill:#0EB0FF;" d="M122.79,154.416C8.91,91.942,92.038,137.763,44.299,112.035
	C9.998,162.377-5.146,223.022,1.551,284.187c51.601,28.273,35.167,19.269,38.481,21.084c4.085,2.241,9.215,0.746,11.456-3.339
	l74.642-136.06C128.371,161.787,126.877,156.657,122.79,154.416z"/>
<path style="fill:#009CF7;" d="M66.005,257.927c-77.764-42.11-61.693-33.407-63.935-34.621c-2.532,19.859-2.785,40.215-0.513,60.922
	l38.476,21.043c4.085,2.241,9.215,0.746,11.456-3.339l25.972-47.344C75.22,258.674,70.09,260.169,66.005,257.927z"/>
<circle style="fill:#50D1DC;" cx="71.63" cy="177.691" r="11.515"/>
<g>
</g>
<g>
</g>
<g>
</g>
<g>
</g>
<g>
</g>
<g>
</g>
<g>
</g>
<g>
</g>
<g>
</g>
<g>
</g>
<g>
</g>
<g>
</g>
<g>
</g>
<g>
</g>
<g>
</g>
</svg>
