<svg id="Layer_1" enable-background="new 0 0 512 512" height="512" viewBox="0 0 512 512" width="512" xmlns="http://www.w3.org/2000/svg"><g><path d="m129.288 269.367v69.048c0 2.276-1.845 4.121-4.121 4.121h-22.664c-2.276 0-4.121-1.845-4.121-4.121v-16.483c0-2.276-1.845-4.121-4.121-4.121h-26.784c-2.276 0-4.121 1.845-4.121 4.121v16.483c0 2.276-1.845 4.121-4.121 4.121h-22.664c-2.276 0-4.121-1.845-4.121-4.121v-69.048z" fill="#ffc344"/><g><path d="m98.382 269.367v69.048c0 2.276 1.845 4.121 4.121 4.121h22.664c2.276 0 4.121-1.845 4.121-4.121v-69.048z" fill="#feb237"/></g><path d="m328.113 286.905h-317.811c-5.69 0-10.302-4.612-10.302-10.301v-41.207c0-5.69 4.612-10.302 10.302-10.302h317.811z" fill="#ffd15b"/><path d="m321.103 248.5h-229.219c-4.142 0-7.5 3.358-7.5 7.5s3.358 7.5 7.5 7.5h229.218c4.142 0 7.5-3.358 7.5-7.5s-3.357-7.5-7.499-7.5z" fill="#feb237"/><path d="m411.042 155.042c-55.753 0-100.958 45.204-100.958 100.958s45.204 100.958 100.958 100.958 100.958-45.205 100.958-100.958-45.204-100.958-100.958-100.958zm0 171.01c-38.632 0-70.052-31.421-70.052-70.052s31.421-70.052 70.052-70.052 70.052 31.421 70.052 70.052-31.42 70.052-70.052 70.052z" fill="#ffc344"/></g></svg>