<svg id="Artboard_30" enable-background="new 0 0 64 64" height="512" viewBox="0 0 64 64" width="512" xmlns="http://www.w3.org/2000/svg"><g><path d="m17 37v21c0 2.209 1.791 4 4 4h36c2.209 0 4-1.791 4-4v-49c0-2.209-1.791-4-4-4h-7-22-7c-2.209 0-4 1.791-4 4v4z" fill="#953528"/><path d="m57 5h-7-22-7c-.167 0-.327.029-.489.049-.001.151-.011.3-.011.451 0 23.751 17.621 43.375 40.5 46.542v-43.042c0-2.209-1.791-4-4-4z" fill="#c64635"/><path d="m21 44.333v11.667c0 1.105.895 2 2 2h32c1.105 0 2-.895 2-2v-45c0-1.105-.895-2-2-2h-5-22-5c-1.105 0-2 .895-2 2v2.683z" fill="#d9d5ca"/><path d="m9 34-6 9.979 6-.979 2 5 6-11z" fill="#5490f5"/><path d="m25 34 6 9.979-6-.979-2 5-6-11z" fill="#81b4fc"/><path d="m21 12.34c2.807 19.242 17.273 34.691 36 38.965v-40.305c0-1.105-.895-2-2-2h-5-22-5c-1.105 0-2 .895-2 2z" fill="#e8e4d8"/><path d="m48 12h-18c-1.105 0-2-.895-2-2v-6c0-1.105.895-2 2-2h18c1.105 0 2 .895 2 2v6c0 1.105-.895 2-2 2z" fill="#d5d6d8"/><path d="m29 25c.025 6.684-5.344 12.045-12 12-6.694-.046-12.057-5.355-12-12 .057-6.627 5.373-12 12-12s11.975 5.373 12 12z" fill="#ffc239"/><circle cx="17" cy="25" fill="#ffd55d" r="9"/><g><path d="m15 29c-.053 0-.107-.004-.16-.013-.317-.052-.59-.252-.734-.54l-2-4 1.789-.895 1.379 2.759 6.019-6.019 1.414 1.414-7 7c-.189.19-.444.294-.707.294z" fill="#f4ac1c"/></g><path d="m48 2h-17v5c0 1.105.895 2 2 2h17v-5c0-1.105-.895-2-2-2z" fill="#f1f1f3"/><g><path d="m34.667 24c-.297 0-.578-.132-.768-.36l-1.667-2 1.536-1.28.898 1.078 2.565-3.078 1.536 1.28-3.333 4c-.189.228-.471.36-.767.36z" fill="#c64635"/></g><g><path d="m34.667 34c-.297 0-.578-.132-.768-.359l-1.667-2 1.536-1.28.898 1.078 2.565-3.078 1.536 1.28-3.333 4c-.189.227-.471.359-.767.359z" fill="#c64635"/></g><g><path d="m41 19h13v2h-13z" fill="#88857c"/></g><g><path d="m41 22h13v2h-13z" fill="#88857c"/></g><g><path d="m41 29h13v2h-13z" fill="#88857c"/></g><g><path d="m41 32h13v2h-13z" fill="#88857c"/></g><g><path d="m34.667 44c-.297 0-.578-.132-.768-.359l-1.667-2 1.536-1.281.898 1.078 2.565-3.078 1.536 1.281-3.333 4c-.189.227-.471.359-.767.359z" fill="#c64635"/></g><g><path d="m34.667 54c-.297 0-.578-.132-.768-.359l-1.667-2 1.536-1.281.898 1.078 2.565-3.078 1.536 1.281-3.333 4c-.189.227-.471.359-.767.359z" fill="#c64635"/></g><g><path d="m41 39h13v2h-13z" fill="#88857c"/></g><g><path d="m41 42h13v2h-13z" fill="#88857c"/></g><g><path d="m41 49h13v2h-13z" fill="#88857c"/></g><g><path d="m41 52h13v2h-13z" fill="#88857c"/></g></g></svg>